<svg width="428" height="428" viewBox="0 0 428 428" fill="none" xmlns="http://www.w3.org/2000/svg">
<path fill-rule="evenodd" clip-rule="evenodd" d="M213.999 427.333C331.823 427.333 427.333 331.823 427.333 213.999C427.333 96.1753 331.823 0.666016 213.999 0.666016C96.1753 0.666016 0.666016 96.1753 0.666016 213.999C0.666016 331.823 96.1753 427.333 213.999 427.333ZM190.831 241.221C189.039 253.167 199.194 263.023 211.269 263.023H221.295C224.144 263.024 226.886 261.938 228.963 259.988C231.039 258.038 232.295 255.37 232.474 252.527C233.69 241.306 238.511 231.493 246.895 223.109L260.335 209.882C270.831 199.322 278.17 189.743 282.373 181.146C286.575 172.421 288.666 163.183 288.666 153.434C288.666 131.994 282.202 115.418 269.274 103.727C256.346 91.9087 238.17 85.9993 214.746 85.9993C191.535 85.9993 173.21 92.186 159.706 104.581C151.713 111.995 145.868 121.429 142.789 131.887C138.863 144.773 150.469 156.015 163.909 156.015C175.301 156.015 183.813 146.735 191.727 138.095C192.837 136.879 193.925 135.663 195.013 134.511C200.005 129.242 206.575 126.618 214.746 126.618C231.983 126.618 240.602 136.303 240.602 155.674C240.602 162.095 238.938 168.239 235.631 174.085C232.325 179.823 225.626 187.333 215.578 196.613C205.637 205.786 198.789 215.151 195.013 224.666C193.157 229.381 191.77 234.906 190.831 241.221ZM192.047 296.922C187.077 301.85 184.581 308.165 184.581 315.845C184.581 323.418 187.013 329.669 191.877 334.618C196.847 339.525 203.375 341.999 211.439 341.999C219.503 341.999 225.946 339.525 230.831 334.597C235.802 329.669 238.298 323.418 238.298 315.845C238.298 308.165 235.738 301.85 230.661 296.922C225.69 291.866 219.269 289.349 211.439 289.349C203.589 289.349 197.146 291.866 192.047 296.922Z" fill="#140256"/>
</svg>
